<svg width="162" height="99" viewBox="0 0 162 99" fill="none" xmlns="http://www.w3.org/2000/svg">
<path d="M28.6356 98.0547V82.7969H0.0887527V67.7578L18.2997 1.69531H48.2684V66.7188H53.4091V82.7969H48.2684V98.0547H28.6356ZM17.2606 66.7188H28.6356V18.2109L17.2606 66.7188ZM81 98.875C72.8698 98.875 66.5807 96.5964 62.1328 92.0391C57.7214 87.4818 55.5156 80.9193 55.5156 72.3516V28.9297C55.5156 19.888 57.612 12.9609 61.8047 8.14844C66.0339 3.29948 72.4323 0.875 81 0.875C89.6042 0.875 96.0026 3.29948 100.195 8.14844C104.388 12.9609 106.484 19.888 106.484 28.9297V72.3516C106.484 80.9193 104.279 87.4818 99.8672 92.0391C95.4557 96.5964 89.1667 98.875 81 98.875ZM81 81.1562C82.4948 81.1562 83.6615 80.4818 84.5 79.1328C85.3385 77.7839 85.7578 76.2708 85.7578 74.5938V27.0703C85.7578 24.8099 85.5026 22.8411 84.9922 21.1641C84.5182 19.4505 83.1875 18.5938 81 18.5938C78.8125 18.5938 77.4635 19.4505 76.9531 21.1641C76.4792 22.8411 76.2422 24.8099 76.2422 27.0703V74.5938C76.2422 76.2708 76.6615 77.7839 77.5 79.1328C78.375 80.4818 79.5417 81.1562 81 81.1562ZM137.083 98.0547V82.7969H108.536V67.7578L126.747 1.69531H156.716V66.7188H161.857V82.7969H156.716V98.0547H137.083ZM125.708 66.7188H137.083V18.2109L125.708 66.7188Z" fill="#0B0B0B"/>
</svg>
