<svg width="34" height="34" viewBox="0 0 34 34" fill="none" xmlns="http://www.w3.org/2000/svg">
<path d="M16.2522 7.39903L18.7282 4.92308C21.516 2.13522 25.1658 0.978834 29.0285 0.789867C30.531 0.716367 31.2822 0.679617 31.8845 1.28202C32.487 1.8844 32.4502 2.6356 32.3767 4.13803C32.1877 8.00072 31.0313 11.6506 28.2435 14.4384L25.7675 16.9144C23.7285 18.9534 23.1488 19.5332 23.5768 21.7449C23.9993 23.4344 24.4082 25.0704 23.1797 26.2989C21.6895 27.789 20.3302 27.789 18.84 26.2989L6.86763 14.3266C5.37748 12.8364 5.37743 11.477 6.86763 9.98687C8.09611 8.75837 9.73215 9.16728 11.4216 9.5897C13.6333 10.0178 14.2132 9.43803 16.2522 7.39903Z" fill="#FFF9F2" fill-opacity="0.2" stroke="#FFFEFC" stroke-width="1.5" stroke-linejoin="round"/>
<path d="M24.9102 8.24988H24.9252" stroke="#FFFEFC" stroke-width="2" stroke-linecap="round" stroke-linejoin="round"/>
<path d="M0.75 32.4166L9.08333 24.0833" stroke="#FFFEFC" stroke-width="1.5" stroke-linecap="round"/>
<path d="M10.75 32.4166L14.0833 29.0833" stroke="#FFFEFC" stroke-width="1.5" stroke-linecap="round"/>
<path d="M0.75 22.4166L4.08333 19.0833" stroke="#FFFEFC" stroke-width="1.5" stroke-linecap="round"/>
</svg>
