<svg width="44" height="44" viewBox="0 0 44 44" fill="none" xmlns="http://www.w3.org/2000/svg">
<path d="M31.1654 18.3333V14.6667C31.1654 9.60406 27.0613 5.5 21.9987 5.5C16.9361 5.5 12.832 9.60406 12.832 14.6667V18.3333M21.9987 26.5833V30.25M16.132 38.5H27.8654C30.9457 38.5 32.4858 38.5 33.6623 37.9005C34.6972 37.3732 35.5386 36.5318 36.0659 35.4969C36.6654 34.3204 36.6654 32.7803 36.6654 29.7V27.1333C36.6654 24.053 36.6654 22.5129 36.0659 21.3364C35.5386 20.3015 34.6972 19.4601 33.6623 18.9328C32.4858 18.3333 30.9457 18.3333 27.8654 18.3333H16.132C13.0517 18.3333 11.5116 18.3333 10.3351 18.9328C9.30019 19.4601 8.4588 20.3015 7.9315 21.3364C7.33203 22.5129 7.33203 24.053 7.33203 27.1333V29.7C7.33203 32.7803 7.33203 34.3204 7.9315 35.4969C8.4588 36.5318 9.30019 37.3732 10.3351 37.9005C11.5116 38.5 13.0517 38.5 16.132 38.5Z" stroke="#0B0B0B" stroke-width="3" stroke-linecap="round" stroke-linejoin="round"/>
</svg>
