<svg width="14" height="14" viewBox="0 0 14 14" fill="none" xmlns="http://www.w3.org/2000/svg">
<path fill-rule="evenodd" clip-rule="evenodd" d="M7.75 1.00012C7.75 0.585909 7.41421 0.250122 7 0.250122C6.58579 0.250122 6.25 0.585909 6.25 1.00012V6.25012H1C0.585786 6.25012 0.25 6.58591 0.25 7.00012C0.25 7.41434 0.585786 7.75012 1 7.75012H6.25V13.0001C6.25 13.4143 6.58579 13.7501 7 13.7501C7.41421 13.7501 7.75 13.4143 7.75 13.0001V7.75012H13C13.4142 7.75012 13.75 7.41434 13.75 7.00012C13.75 6.58591 13.4142 6.25012 13 6.25012H7.75V1.00012Z" fill="black"/>
</svg>
