<svg width="48" height="48" viewBox="0 0 48 48" fill="none" xmlns="http://www.w3.org/2000/svg">
<path d="M32 6C32 5.0572 32 4.58578 31.7072 4.2929C31.4142 4 30.9428 4 30 4H28C27.0572 4 26.5858 4 26.2928 4.2929C26 4.58578 26 5.0572 26 6V8C26 8.9428 26 9.41422 26.2928 9.7071C26.5858 10 27.0572 10 28 10H30C30.9428 10 31.4142 10 31.7072 9.7071C32 9.41422 32 8.9428 32 8V6Z" stroke="#FFFEFC" stroke-width="1.5" stroke-linejoin="round"/>
<path d="M16.6665 16.8148C19.8763 13.3582 44.02 21.8258 44 24.9172C43.9774 28.423 34.5712 29.5014 31.964 30.233C30.3962 30.6728 29.9764 31.1236 29.6148 32.7676C27.9776 40.2134 27.1556 43.9166 25.2822 43.9994C22.296 44.1314 13.534 20.1882 16.6665 16.8148Z" fill="#FFF9F2" fill-opacity="0.2" stroke="#FFFEFC" stroke-width="1.5"/>
<path d="M10 6C10 5.0572 10 4.58578 9.7071 4.2929C9.41422 4 8.9428 4 8 4H6C5.0572 4 4.58578 4 4.2929 4.2929C4 4.58578 4 5.0572 4 6V8C4 8.9428 4 9.41422 4.2929 9.7071C4.58578 10 5.0572 10 6 10H8C8.9428 10 9.41422 10 9.7071 9.7071C10 9.41422 10 8.9428 10 8V6Z" stroke="#FFFEFC" stroke-width="1.5" stroke-linejoin="round"/>
<path d="M10 28C10 27.0572 10 26.5858 9.7071 26.2928C9.41422 26 8.9428 26 8 26H6C5.0572 26 4.58578 26 4.2929 26.2928C4 26.5858 4 27.0572 4 28V30C4 30.9428 4 31.4142 4.2929 31.7072C4.58578 32 5.0572 32 6 32H8C8.9428 32 9.41422 32 9.7071 31.7072C10 31.4142 10 30.9428 10 30V28Z" stroke="#FFFEFC" stroke-width="1.5" stroke-linejoin="round"/>
<path d="M7 26V10M26 7H10" stroke="#FFFEFC" stroke-width="1.5" stroke-linecap="round" stroke-linejoin="round"/>
</svg>
