<svg width="48" height="48" viewBox="0 0 48 48" fill="none" xmlns="http://www.w3.org/2000/svg">
<path d="M10 12C10.1743 9.1611 10.6526 7.3533 11.9649 6.05026C14.0298 4 17.3532 4 24 4C30.6468 4 33.9702 4 36.035 6.05026C37.3474 7.3533 37.8256 9.1611 38 12M38 36C37.8256 38.8388 37.3474 40.6466 36.035 41.9498C33.9702 44 30.6468 44 24 44C17.3532 44 14.0298 44 11.9649 41.9498C10.6526 40.6466 10.1743 38.8388 10 36" stroke="#FFFEFC" stroke-width="1.5" stroke-linecap="round"/>
<path d="M22 38H26" stroke="#FFFEFC" stroke-width="1.5" stroke-linecap="round" stroke-linejoin="round"/>
<path d="M38 24C38 20.2502 38 18.3754 37.045 17.061C36.7366 16.6366 36.3634 16.2634 35.939 15.955C34.6246 15 32.7498 15 29 15H19C15.2502 15 13.3754 15 12.0611 15.955C11.6366 16.2634 11.2633 16.6366 10.9549 17.061C10 18.3754 10 20.2502 10 24C10 27.7498 10 29.6246 10.9549 30.939C11.2633 31.3634 11.6366 31.7366 12.0611 32.045C13.3754 33 15.2502 33 19 33H29C32.7498 33 34.6246 33 35.939 32.045C36.3634 31.7366 36.7366 31.3634 37.045 30.939C38 29.6246 38 27.7498 38 24Z" fill="#FFF9F2" fill-opacity="0.2" stroke="#FFFEFC" stroke-width="1.5"/>
<path d="M27 21L28.8398 22.5858C29.6132 23.2524 30 23.5858 30 24C30 24.4142 29.6132 24.7476 28.8398 25.4142L27 27" stroke="#FFFEFC" stroke-width="1.5" stroke-linecap="round" stroke-linejoin="round"/>
<path d="M21 21L19.1602 22.5858C18.3868 23.2524 18 23.5858 18 24C18 24.4142 18.3868 24.7476 19.1602 25.4142L21 27" stroke="#FFFEFC" stroke-width="1.5" stroke-linecap="round" stroke-linejoin="round"/>
</svg>
