<svg width="48" height="48" viewBox="0 0 48 48" fill="none" xmlns="http://www.w3.org/2000/svg">
<path d="M43.9196 21.9414C44.0268 23.6018 44.0268 25.3214 43.9196 26.9818C43.3712 35.4664 36.7072 42.225 28.3412 42.781C25.487 42.9708 22.5072 42.9704 19.6588 42.781C18.6779 42.7158 17.6088 42.4818 16.688 42.1026C15.6635 41.6806 15.1512 41.4696 14.8909 41.5016C14.6305 41.5336 14.2528 41.8122 13.4974 42.3692C12.1654 43.3514 10.4873 44.057 7.99885 43.9964C6.74051 43.9658 6.11135 43.9504 5.82967 43.4702C5.54801 42.99 5.89881 42.3252 6.60041 40.9956C7.57348 39.1516 8.19001 37.0406 7.25581 35.3492C5.64685 32.9332 4.28019 30.072 4.08048 26.9818C3.97318 25.3214 3.97318 23.6018 4.08048 21.9414C4.62882 13.4568 11.2928 6.69826 19.6588 6.14214C22.0636 5.98228 22.5624 5.95712 25 6.06736" stroke="#FFFEFC" stroke-width="1.5" stroke-linecap="round" stroke-linejoin="round"/>
<path d="M17 30H31M17 20H24" stroke="#FFFEFC" stroke-width="1.5" stroke-linecap="round" stroke-linejoin="round"/>
<path d="M44 11C44 14.866 40.866 18 37 18C33.134 18 30 14.866 30 11C30 7.134 33.134 4 37 4C40.866 4 44 7.134 44 11Z" fill="#FFF9F2" fill-opacity="0.2" stroke="#FFFEFC" stroke-width="1.5"/>
</svg>
