<svg width="48" height="48" viewBox="0 0 48 48" fill="none" xmlns="http://www.w3.org/2000/svg">
<path d="M40 20.256C40 12.5929 40 8.76128 37.6568 6.38064C35.3138 4 31.5424 4 24 4H20C12.4575 4 8.6863 4 6.34314 6.38064C4 8.76128 4 12.5929 4 20.256C4 27.9192 4 31.7508 6.34314 34.1314C7.28236 35.0856 8.451 35.6574 10 36" stroke="#FFFEFC" stroke-width="1.5" stroke-linecap="round"/>
<path d="M44 35C44 31.2502 44 29.3754 43.045 28.061C42.7366 27.6366 42.3634 27.2634 41.939 26.955C40.6246 26 38.7498 26 35 26H25C21.2502 26 19.3754 26 18.0611 26.955C17.6366 27.2634 17.2633 27.6366 16.9549 28.061C16 29.3754 16 31.2502 16 35C16 38.7498 16 40.6246 16.9549 41.939C17.2633 42.3634 17.6366 42.7366 18.0611 43.045C19.3754 44 21.2502 44 25 44H35C38.7498 44 40.6246 44 41.939 43.045C42.3634 42.7366 42.7366 42.3634 43.045 41.939C44 40.6246 44 38.7498 44 35Z" fill="#FFF9F2" fill-opacity="0.2" stroke="#FFFEFC" stroke-width="1.5"/>
<path d="M33 32L34.8398 33.5858C35.6132 34.2524 36 34.5858 36 35C36 35.4142 35.6132 35.7476 34.8398 36.4142L33 38" stroke="#FFFEFC" stroke-width="1.5" stroke-linecap="round" stroke-linejoin="round"/>
<path d="M27 32L25.1602 33.5858C24.3868 34.2524 24 34.5858 24 35C24 35.4142 24.3868 35.7476 25.1602 36.4142L27 38" stroke="#FFFEFC" stroke-width="1.5" stroke-linecap="round" stroke-linejoin="round"/>
<path d="M5 12H39" stroke="#FFFEFC" stroke-width="1.5" stroke-linecap="round" stroke-linejoin="round"/>
</svg>
