<svg width="166" height="40" viewBox="0 0 166 40" fill="none" xmlns="http://www.w3.org/2000/svg">
<path d="M9.8603 3.73797L14.1507 19.75V2.14604C14.4909 2.06665 14.8348 1.99674 15.182 1.93659V19.7516L20.0076 1.74219C20.3553 1.77367 20.7003 1.81486 21.0422 1.8655L16.1777 20.02L25.847 3.27222C26.162 3.41393 26.4723 3.56428 26.7775 3.72296L17.0721 20.5332L30.9278 6.67752C31.1776 6.91375 31.4208 7.15693 31.657 7.40676L17.7993 21.2645L34.6115 11.5579C34.7702 11.8632 34.9205 12.1735 35.0622 12.4885L18.3185 22.1555L36.4681 17.2923C36.5187 17.6342 36.5599 17.9792 36.5913 18.3269L18.5821 23.1525L36.3967 23.1525C36.3365 23.4997 36.2666 23.8435 36.1872 24.1837L18.5794 24.1837L34.5945 28.475C34.43 28.7899 34.2567 29.0995 34.0748 29.4033L18.317 25.1811L31.4784 32.7798C31.2292 33.036 30.9726 33.285 30.709 33.5263L17.8025 26.0748L27.5686 35.8409C27.2597 36.0214 26.945 36.1931 26.625 36.3556L17.0723 26.803L23.3313 37.6439C22.9886 37.7408 22.6418 37.8279 22.2913 37.9051L16.1783 27.317L19.1256 38.3166C18.8629 38.3278 18.5988 38.3334 18.3333 38.3334C18.2427 38.3334 18.1523 38.3328 18.062 38.3315L15.1819 27.5831V38.0636C14.8347 38.0035 14.4909 37.9335 14.1507 37.8542V27.5848L11.6113 37.0619C11.2874 36.9342 10.968 36.7975 10.6535 36.6522L13.1542 27.3193L8.45978 35.4503C8.16916 35.2641 7.88413 35.0701 7.605 34.8683L12.2625 26.8013L5.73999 33.3238C5.49017 33.0876 5.24698 32.8444 5.01075 32.5946L11.5312 26.0741L3.46649 30.7303C3.2647 30.4512 3.07057 30.1662 2.88441 29.8756L11.0192 25.1789L1.68167 27.6809C1.53633 27.3664 1.39964 27.047 1.27191 26.7231L10.749 24.1837L0.479507 24.1837C0.400099 23.8435 0.330164 23.4997 0.269995 23.1525H10.7462L0.00199804 20.2736C0.000667553 20.1826 0 20.0914 0 20.0001C0 19.7353 0.00561207 19.4719 0.0167237 19.2099L11.0177 22.1576L0.428018 16.0436C0.505126 15.6931 0.592266 15.3463 0.689122 15.0036L11.5345 21.2652L1.97778 11.7085C2.14037 11.3884 2.31208 11.0737 2.49256 10.7648L12.2626 20.5349L4.80814 7.62333C5.04952 7.3597 5.29851 7.10314 5.55475 6.85402L13.1548 20.0177L8.93191 4.25758C9.23578 4.07572 9.54535 3.9024 9.8603 3.73797Z" fill="#FFFEFC" fill-opacity="0.64"/>
<path d="M48.207 28.2575H52.197V21.3275H60.1537V17.8042H52.197V14.8408H60.667V11.3408H48.207V28.2575Z" fill="#FFFEFC" fill-opacity="0.64"/>
<path d="M67.4485 18.3175C68.9651 18.3175 70.1785 19.2508 70.1785 21.9342C70.1785 24.5708 69.0118 25.5742 67.4485 25.5742C65.8851 25.5742 64.7185 24.5708 64.7185 21.9342C64.7185 19.2508 65.9318 18.3175 67.4485 18.3175ZM67.4485 15.3308C63.9718 15.3308 60.7985 17.3842 60.7985 21.9342C60.7985 26.4842 63.9718 28.5608 67.4485 28.5608C70.9251 28.5608 74.0985 26.4842 74.0985 21.9342C74.0985 17.3842 70.9251 15.3308 67.4485 15.3308Z" fill="#FFFEFC" fill-opacity="0.64"/>
<path d="M81.4913 15.3308C77.688 15.3308 75.0746 17.9208 75.0746 21.9108C75.0746 25.9008 77.3613 28.5608 81.4913 28.5608C84.0113 28.5608 87.0213 27.3708 87.8846 23.6375H84.2913C84.0113 24.8275 83.148 25.5742 81.7246 25.5742C80.348 25.5742 78.9946 24.6642 78.9946 21.9342C78.9946 19.2508 80.348 18.3175 81.7246 18.3175C82.868 18.3175 83.778 18.8308 84.128 20.3008H87.7213C86.9746 16.5208 84.1046 15.3308 81.4913 15.3308Z" fill="#FFFEFC" fill-opacity="0.64"/>
<path d="M96.931 20.4175C92.0544 20.7908 88.5777 21.7942 88.5777 24.8742C88.5777 27.1608 90.5377 28.5608 92.9177 28.5608C94.7144 28.5608 96.2077 28.0708 97.141 26.7408L97.1877 28.2575H100.968C100.781 27.4642 100.688 25.9942 100.688 24.6175V23.3108L100.734 20.5808C100.804 16.7775 98.751 15.3075 95.1344 15.3075C91.401 15.3075 89.161 17.4075 88.9744 19.7642H92.5677C92.731 18.5508 93.571 17.9208 94.8077 17.9208C96.2077 17.9208 96.931 18.4342 96.931 19.9275V20.4175ZM97.0244 22.9842C97.0244 25.2942 95.8577 25.9475 94.3177 25.9475C93.3144 25.9475 92.5444 25.4108 92.5444 24.5942C92.5444 23.2408 94.341 22.9375 97.0244 22.6808V22.9842Z" fill="#FFFEFC" fill-opacity="0.64"/>
<path d="M106.56 11.3408H102.71V28.2575H106.56V11.3408Z" fill="#FFFEFC" fill-opacity="0.64"/>
<path d="M109.015 11.3408V28.2575H113.005V22.4008H115.525C119.912 22.4008 123.202 21.3042 123.202 16.8475C123.202 12.4142 119.912 11.3408 115.525 11.3408H109.015ZM115.642 14.7008C117.508 14.7008 118.978 15.0742 118.978 16.8475C118.978 18.6208 117.508 19.0408 115.642 19.0408H113.005V14.7008H115.642Z" fill="#FFFEFC" fill-opacity="0.64"/>
<path d="M129.965 18.3175C131.482 18.3175 132.695 19.2508 132.695 21.9342C132.695 24.5708 131.529 25.5742 129.965 25.5742C128.402 25.5742 127.235 24.5708 127.235 21.9342C127.235 19.2508 128.449 18.3175 129.965 18.3175ZM129.965 15.3308C126.489 15.3308 123.315 17.3842 123.315 21.9342C123.315 26.4842 126.489 28.5608 129.965 28.5608C133.442 28.5608 136.615 26.4842 136.615 21.9342C136.615 17.3842 133.442 15.3308 129.965 15.3308Z" fill="#FFFEFC" fill-opacity="0.64"/>
<path d="M138.156 15.7042V28.2575H142.029V15.7042H138.156ZM138.156 11.3408V14.4208H142.006V11.3408H138.156Z" fill="#FFFEFC" fill-opacity="0.64"/>
<path d="M148.17 15.7042H144.32V28.2575H148.17V21.8175C148.17 19.4842 148.847 18.4108 150.503 18.4108C152.37 18.4108 152.44 19.8808 152.44 21.6775V28.2575H156.29V20.7208C156.29 17.3142 155.287 15.4242 152.067 15.4242C150.083 15.4242 148.73 16.4275 148.17 17.3608V15.7042Z" fill="#FFFEFC" fill-opacity="0.64"/>
<path d="M158.952 15.7042H156.969V18.4342H158.952V24.7342C158.952 27.6508 160.002 28.2575 163.106 28.2575H165.556V25.4808H164.459C163.176 25.4808 162.802 25.2475 162.802 24.0575V18.4342H165.556V15.7042H162.802V12.2742H158.952V15.7042Z" fill="#FFFEFC" fill-opacity="0.64"/>
</svg>
