<svg width="152" height="40" viewBox="0 0 152 40" fill="none" xmlns="http://www.w3.org/2000/svg">
<g clip-path="url(#clip0_8145_844)">
<path d="M22.7237 3.43466L19.2064 2.49219L16.2423 13.5544L13.5662 3.56736L10.0488 4.50984L12.9401 15.3001L5.73856 8.09859L3.16367 10.6735L11.0629 18.5727L1.22568 15.9368L0.283203 19.4542L11.0316 22.3342C10.9085 21.8034 10.8434 21.2504 10.8434 20.6821C10.8434 16.6599 14.104 13.3992 18.1263 13.3992C22.1485 13.3992 25.4092 16.6599 25.4092 20.6821C25.4092 21.2467 25.3449 21.7964 25.2234 22.324L34.9916 24.9414L35.934 21.4241L25.143 18.5326L34.9808 15.8965L34.0383 12.3792L23.2476 15.2705L30.4492 8.06903L27.8743 5.49414L20.0847 13.2838L22.7237 3.43466Z" fill="#FFFEFC" fill-opacity="0.64"/>
<path d="M25.2131 22.365C24.9115 23.6399 24.2748 24.7852 23.4013 25.7029L30.478 32.7796L33.0528 30.2047L25.2131 22.365Z" fill="#FFFEFC" fill-opacity="0.64"/>
<path d="M23.3298 25.7769C22.4457 26.6798 21.3285 27.3537 20.0755 27.701L22.6506 37.3112L26.1679 36.3687L23.3298 25.7769Z" fill="#FFFEFC" fill-opacity="0.64"/>
<path d="M19.9442 27.7361C19.3629 27.8856 18.7536 27.965 18.1257 27.965C17.453 27.965 16.8016 27.8738 16.1832 27.703L13.6058 37.322L17.1231 38.2645L19.9442 27.7361Z" fill="#FFFEFC" fill-opacity="0.64"/>
<path d="M16.0588 27.6676C14.825 27.3031 13.7276 26.6206 12.8615 25.715L5.76745 32.8091L8.34234 35.384L16.0588 27.6676Z" fill="#FFFEFC" fill-opacity="0.64"/>
<path d="M12.8031 25.6523C11.9519 24.741 11.3319 23.611 11.0367 22.3557L1.23657 24.9817L2.17904 28.499L12.8031 25.6523Z" fill="#FFFEFC" fill-opacity="0.64"/>
</g>
<path d="M57.0996 10.7578V23.4328L48.9746 10.7578H45.7246V28.2578H48.9746V15.6828L57.0996 28.2578H60.3496V10.7578H57.0996Z" fill="#FFFEFC" fill-opacity="0.64"/>
<path d="M61.8141 14.0328H65.1641V10.7578H61.8141V14.0328ZM61.8641 28.2578V15.7578H65.1141V28.2578H61.8641Z" fill="#FFFEFC" fill-opacity="0.64"/>
<path d="M79.0975 22.0078C79.0975 17.6828 76.0225 15.6328 72.7725 15.6078C69.4975 15.5828 66.4725 17.6828 66.4725 22.0078C66.4725 26.3328 69.4975 28.4328 72.7725 28.4078C75.7475 28.3828 77.7975 27.0078 78.7475 24.7328L76.2225 23.6828C75.4475 25.2328 74.2225 25.7828 72.7725 25.8078C71.5225 25.8328 70.0975 25.2328 69.7975 23.0078H79.0225C79.0725 22.6828 79.0975 22.3578 79.0975 22.0078ZM72.7725 18.1828C74.0225 18.2078 75.2975 18.8828 75.6975 20.6828H69.8475C70.2725 18.8578 71.5475 18.1578 72.7725 18.1828Z" fill="#FFFEFC" fill-opacity="0.64"/>
<path d="M86.6084 18.0828V15.6078H84.5584V12.2578L81.3084 13.2578V15.6078H79.2584V18.0828H81.3084V24.5578C81.3084 27.0078 81.5084 28.2578 85.3084 28.2578H86.1834V25.4078H85.3084C84.7084 25.4078 84.5584 25.3078 84.5584 24.5578V18.0828H86.6084Z" fill="#FFFEFC" fill-opacity="0.64"/>
<path d="M91.4377 25.5328L98.3377 18.4828V15.7578H87.9877V18.4828H94.6877L87.7877 25.5328V28.2578H98.4127V25.5328H91.4377Z" fill="#FFFEFC" fill-opacity="0.64"/>
<path d="M99.5779 24.7328L102.853 24.2328C103.078 25.4828 104.553 25.9578 105.453 25.9578C106.378 25.9578 107.978 25.7578 107.978 24.2578C107.978 21.3328 99.9529 24.9828 99.9529 19.3828C99.9529 15.7828 104.128 15.5828 105.453 15.5828C106.703 15.5828 110.328 15.7828 111.078 18.6828L107.978 19.3328C107.703 18.0078 106.303 17.7578 105.553 17.7578C104.803 17.7578 103.203 17.9328 103.203 19.3828C103.203 22.2828 111.228 18.5828 111.228 24.2578C111.228 28.0828 106.828 28.4078 105.453 28.4078C104.203 28.4078 100.228 28.0828 99.5779 24.7328Z" fill="#FFFEFC" fill-opacity="0.64"/>
<path d="M115.45 22.0078C115.45 25.0578 117.075 25.9828 118.775 25.9578C120.3 25.9328 121.35 25.3078 121.975 23.5578L124.65 24.8578C123.675 27.4078 121.3 28.3828 118.775 28.4078C115.5 28.4328 112.2 26.3328 112.2 22.0078C112.2 17.6828 115.5 15.5828 118.775 15.6078C121.3 15.6328 123.675 16.6078 124.65 19.1578L121.975 20.4578C121.35 18.7078 120.3 18.0828 118.775 18.0578C117.075 18.0328 115.45 18.9578 115.45 22.0078Z" fill="#FFFEFC" fill-opacity="0.64"/>
<path d="M133.375 15.5578C131.7 15.5578 130.175 16.4328 129.2 18.3078V10.7578H125.95V28.2578H129.2V23.8328C129.2 18.1078 131.575 17.6328 132.45 17.6328C133.85 17.6328 134.05 19.0828 134.05 21.2078V28.2578H137.3V21.2078C137.3 18.5578 136.875 15.5578 133.375 15.5578Z" fill="#FFFEFC" fill-opacity="0.64"/>
<path d="M151.021 22.0078C151.021 17.6828 147.946 15.6328 144.696 15.6078C141.421 15.5828 138.396 17.6828 138.396 22.0078C138.396 26.3328 141.421 28.4328 144.696 28.4078C147.671 28.3828 149.721 27.0078 150.671 24.7328L148.146 23.6828C147.371 25.2328 146.146 25.7828 144.696 25.8078C143.446 25.8328 142.021 25.2328 141.721 23.0078H150.946C150.996 22.6828 151.021 22.3578 151.021 22.0078ZM144.696 18.1828C145.946 18.2078 147.221 18.8828 147.621 20.6828H141.771C142.196 18.8578 143.471 18.1578 144.696 18.1828Z" fill="#FFFEFC" fill-opacity="0.64"/>
<defs>
<clipPath id="clip0_8145_844">
<rect width="36.6667" height="36.6667" fill="white" transform="translate(0 1.66699)"/>
</clipPath>
</defs>
</svg>
