<svg width="42" height="42" viewBox="0 0 42 42" fill="none" xmlns="http://www.w3.org/2000/svg">
<path d="M21 41C32.0457 41 41 32.0457 41 21C41 9.9543 32.0457 1 21 1C9.9543 1 1 9.9543 1 21C1 32.0457 9.9543 41 21 41Z" fill="#FFF9F2" fill-opacity="0.2" stroke="#FFFEFC" stroke-width="1.5"/>
<path d="M29 17L31.453 19.1144C32.4844 20.0032 33 20.4478 33 21C33 21.5522 32.4844 21.9968 31.453 22.8856L29 25" stroke="#FFFEFC" stroke-width="1.5" stroke-linecap="round" stroke-linejoin="round"/>
<path d="M13 17L10.5469 19.1144C9.51564 20.0032 9 20.4478 9 21C9 21.5522 9.51564 21.9968 10.5469 22.8856L13 25" stroke="#FFFEFC" stroke-width="1.5" stroke-linecap="round" stroke-linejoin="round"/>
<path d="M23 15L19 27" stroke="#FFFEFC" stroke-width="1.5" stroke-linecap="round" stroke-linejoin="round"/>
</svg>
