<svg width="42" height="38" viewBox="0 0 42 38" fill="none" xmlns="http://www.w3.org/2000/svg">
<path d="M23 9C23 13.4183 19.4182 17 15 17C10.5817 17 7 13.4183 7 9C7 4.58172 10.5817 1 15 1C19.4182 1 23 4.58172 23 9Z" stroke="#FFFEFC" stroke-width="1.5"/>
<path d="M27 17C31.4182 17 35 13.4183 35 9C35 4.58172 31.4182 1 27 1" stroke="#FFFEFC" stroke-width="1.5" stroke-linecap="round" stroke-linejoin="round"/>
<path d="M19 23H11C5.47716 23 1 27.4772 1 33C1 35.2092 2.79086 37 5 37H25C27.2092 37 29 35.2092 29 33C29 27.4772 24.5228 23 19 23Z" fill="#FFF9F2" fill-opacity="0.2" stroke="#FFFEFC" stroke-width="1.5" stroke-linejoin="round"/>
<path d="M31 23C36.5228 23 41 27.4772 41 33C41 35.2092 39.2092 37 37 37H34" stroke="#FFFEFC" stroke-width="1.5" stroke-linecap="round" stroke-linejoin="round"/>
</svg>
