<svg width="42" height="42" viewBox="0 0 42 42" fill="none" xmlns="http://www.w3.org/2000/svg">
<path d="M38.9984 17C38.9814 9.83086 38.7722 6.05628 36.2176 3.63604C33.435 1 28.9566 1 20 1C11.0433 1 6.56498 1 3.78248 3.63604C1 6.27208 1 10.5147 1 19C1 27.4852 1 31.728 3.78248 34.364C6.23526 36.6876 10.0058 36.963 17 36.9956" stroke="#FFFEFC" stroke-width="1.5" stroke-linecap="round"/>
<path d="M27 32C27 32 28 32 29 34C29 34 32.1764 29 35 28" stroke="#FFFEFC" stroke-width="1.5" stroke-linecap="round" stroke-linejoin="round"/>
<path d="M41 31C41 36.5228 36.5228 41 31 41C25.4772 41 21 36.5228 21 31C21 25.4772 25.4772 21 31 21C36.5228 21 41 25.4772 41 31Z" fill="#FFF9F2" fill-opacity="0.2" stroke="#FFFEFC" stroke-width="1.5" stroke-linecap="round"/>
<path d="M1 14H39" stroke="#FFFEFC" stroke-width="1.5" stroke-linejoin="round"/>
<path d="M9.99963 8H10.0176" stroke="#FFFEFC" stroke-width="1.5" stroke-linecap="round" stroke-linejoin="round"/>
<path d="M17.9996 8H18.0176" stroke="#FFFEFC" stroke-width="1.5" stroke-linecap="round" stroke-linejoin="round"/>
</svg>
