<svg width="42" height="40" viewBox="0 0 42 40" fill="none" xmlns="http://www.w3.org/2000/svg">
<path d="M22 12L17 20H25L20 28" stroke="#FFFEFC" stroke-width="1.5" stroke-linecap="round" stroke-linejoin="round"/>
<path d="M39.022 24.2782C40.0658 23.991 40.5878 23.8474 40.7938 23.5728C41 23.2982 41 22.8564 41 21.973V18.0272C41 17.1438 41 16.702 40.7938 16.4274C40.5876 16.1528 40.0658 16.0092 39.022 15.722C35.1212 14.6486 32.6798 10.4876 33.6866 6.53362C33.9634 5.44622 34.1018 4.90252 33.9696 4.58364C33.8374 4.26476 33.4582 4.045 32.6994 3.6055L29.25 1.60726C28.5056 1.176 28.1334 0.960358 27.7994 1.00628C27.4652 1.0522 27.0884 1.43584 26.3344 2.20314C23.416 5.17378 18.5872 5.17366 15.6687 2.20294C14.9149 1.43564 14.538 1.052 14.2039 1.00608C13.8698 0.960158 13.4975 1.1758 12.7531 1.60706L9.30368 3.60532C8.54506 4.04478 8.16574 4.26452 8.03356 4.58336C7.90136 4.9022 8.03974 5.44596 8.3165 6.53348C9.32274 10.4876 6.87944 14.6487 2.97804 15.722C1.93424 16.0092 1.41234 16.1528 1.20616 16.4274C1 16.702 1 17.1436 1 18.0272V21.973C1 22.8564 1 23.2982 1.20616 23.5728C1.4123 23.8474 1.93422 23.991 2.97804 24.2782C6.8788 25.3516 9.32016 29.5126 8.31344 33.4666C8.03658 34.554 7.89814 35.0976 8.03032 35.4166C8.16252 35.7354 8.54184 35.9552 9.3005 36.3946L12.7499 38.393C13.4944 38.8242 13.8667 39.0398 14.2008 38.994C14.5349 38.948 14.9118 38.5642 15.6654 37.797C18.5854 34.8238 23.4176 34.8238 26.3378 37.7968C27.0914 38.5642 27.4682 38.9478 27.8024 38.9938C28.1364 39.0396 28.5088 38.824 29.2532 38.3928L32.7026 36.3944C33.4614 35.955 33.8408 35.7352 33.9728 35.4162C34.105 35.0974 33.9666 34.5536 33.6896 33.4664C32.6824 29.5126 35.1218 25.3516 39.022 24.2782Z" fill="#FFF9F2" fill-opacity="0.2" stroke="#FFFEFC" stroke-width="1.5" stroke-linecap="round"/>
</svg>
